{
    "asset" : {
        "generator" : "Khronos glTF Blender I/O v1.3.48",
        "version" : "2.0"
    },
    "scene" : 0,
    "scenes" : [
        {
            "name" : "Scene",
            "nodes" : [
                0,
                1,
                2,
                3,
                4,
                5,
                6,
                7,
                8,
                9
            ]
        }
    ],
    "nodes" : [
        {
            "name" : "Light",
            "rotation" : [
                0.16907575726509094,
                0.7558803558349609,
                -0.27217137813568115,
                0.570947527885437
            ],
            "translation" : [
                4.076245307922363,
                5.903861999511719,
                -1.0054539442062378
            ]
        },
        {
            "name" : "Camera",
            "rotation" : [
                0.483536034822464,
                0.33687159419059753,
                -0.20870360732078552,
                0.7804827094078064
            ],
            "translation" : [
                7.358891487121582,
                6.918207168579102,
                6.925790786743164
            ]
        },
        {
            "mesh" : 0,
            "name" : "Cylinder",
            "scale" : [
                0.1844811886548996,
                0.1844811886548996,
                0.1844811886548996
            ],
            "translation" : [
                -0.0035092290490865707,
                0.14064766466617584,
                -0.015427859500050545
            ]
        },
        {
            "mesh" : 1,
            "name" : "Cylinder.001",
            "scale" : [
                0.15770094096660614,
                0.1844811886548996,
                0.15770094096660614
            ],
            "translation" : [
                -0.0035092290490865707,
                0.14064766466617584,
                -0.015427859500050545
            ]
        },
        {
            "mesh" : 2,
            "name" : "FLUID",
            "scale" : [
                0.1436881273984909,
                0.1844811886548996,
                0.1436881273984909
            ],
            "translation" : [
                -0.0035092290490865707,
                0.14064766466617584,
                -0.015427859500050545
            ]
        },
        {
            "name" : "Empty",
            "scale" : [
                0.1844811886548996,
                0.1844811886548996,
                0.1844811886548996
            ],
            "translation" : [
                0.9049960970878601,
                0.15143130719661713,
                -0.8240218162536621
            ]
        },
        {
            "name" : "BezierCircle",
            "rotation" : [
                0,
                0,
                -0.7071067690849304,
                0.7071068286895752
            ],
            "translation" : [
                0,
                0.8398723006248474,
                0
            ]
        },
        {
            "mesh" : 3,
            "name" : "Cylinder.003",
            "scale" : [
                0.1844811886548996,
                0.1844811886548996,
                0.1844811886548996
            ],
            "translation" : [
                -0.0035092290490865707,
                0.14064766466617584,
                -0.015427859500050545
            ]
        },
        {
            "name" : "Area",
            "scale" : [
                33.796939849853516,
                33.796939849853516,
                33.796939849853516
            ],
            "translation" : [
                -6.340183734893799,
                4.7900800704956055,
                8.491000175476074
            ]
        },
        {
            "name" : "Spot",
            "rotation" : [
                -0.21510744094848633,
                0,
                0,
                0.9765903949737549
            ],
            "translation" : [
                0,
                5.490494728088379,
                -1.4612451791763306
            ]
        }
    ],
    "materials" : [
        {
            "doubleSided" : true,
            "emissiveFactor" : [
                0,
                0,
                0
            ],
            "name" : "Material.003",
            "pbrMetallicRoughness" : {
                "baseColorFactor" : [
                    0.8000000715255737,
                    0.5302047729492188,
                    0.3156691789627075,
                    1
                ],
                "metallicFactor" : 1,
                "roughnessFactor" : 0.3664688467979431
            }
        },
        {
            "doubleSided" : true,
            "emissiveFactor" : [
                0,
                0,
                0
            ],
            "name" : "Material.011",
            "pbrMetallicRoughness" : {
                "baseColorFactor" : [
                    0.800000011920929,
                    0.800000011920929,
                    0.800000011920929,
                    1
                ],
                "metallicFactor" : 0,
                "roughnessFactor" : 0.022900767624378204
            }
        },
        {
            "doubleSided" : true,
            "emissiveFactor" : [
                0,
                0,
                0
            ],
            "name" : "Material.005",
            "pbrMetallicRoughness" : {
                "baseColorFactor" : [
                    0,
                    0.8000000715255737,
                    0.004472270607948303,
                    1
                ],
                "metallicFactor" : 0,
                "roughnessFactor" : 0
            }
        }
    ],
    "meshes" : [
        {
            "name" : "Cylinder",
            "primitives" : [
                {
                    "attributes" : {
                        "POSITION" : 0,
                        "NORMAL" : 1,
                        "TEXCOORD_0" : 2
                    },
                    "indices" : 3,
                    "material" : 0
                }
            ]
        },
        {
            "name" : "Cylinder.001",
            "primitives" : [
                {
                    "attributes" : {
                        "POSITION" : 4,
                        "NORMAL" : 5,
                        "TEXCOORD_0" : 6
                    },
                    "indices" : 7,
                    "material" : 1
                }
            ]
        },
        {
            "name" : "Cylinder.003",
            "primitives" : [
                {
                    "attributes" : {
                        "POSITION" : 8,
                        "NORMAL" : 9,
                        "TEXCOORD_0" : 10
                    },
                    "indices" : 11,
                    "material" : 2
                }
            ]
        },
        {
            "name" : "Cylinder.004",
            "primitives" : [
                {
                    "attributes" : {
                        "POSITION" : 12,
                        "NORMAL" : 13,
                        "TEXCOORD_0" : 14
                    },
                    "indices" : 15,
                    "material" : 0
                }
            ]
        }
    ],
    "accessors" : [
        {
            "bufferView" : 0,
            "componentType" : 5126,
            "count" : 8435,
            "max" : [
                1.0007476806640625,
                1.9570986032485962,
                1.0007476806640625
            ],
            "min" : [
                -1.0007476806640625,
                -0.999351441860199,
                -1.0007476806640625
            ],
            "type" : "VEC3"
        },
        {
            "bufferView" : 1,
            "componentType" : 5126,
            "count" : 8435,
            "type" : "VEC3"
        },
        {
            "bufferView" : 2,
            "componentType" : 5126,
            "count" : 8435,
            "type" : "VEC2"
        },
        {
            "bufferView" : 3,
            "componentType" : 5123,
            "count" : 42984,
            "type" : "SCALAR"
        },
        {
            "bufferView" : 4,
            "componentType" : 5126,
            "count" : 396,
            "max" : [
                1,
                1.489858627319336,
                1
            ],
            "min" : [
                -1,
                -0.5577771663665771,
                -1
            ],
            "type" : "VEC3"
        },
        {
            "bufferView" : 5,
            "componentType" : 5126,
            "count" : 396,
            "type" : "VEC3"
        },
        {
            "bufferView" : 6,
            "componentType" : 5126,
            "count" : 396,
            "type" : "VEC2"
        },
        {
            "bufferView" : 7,
            "componentType" : 5123,
            "count" : 2112,
            "type" : "SCALAR"
        },
        {
            "bufferView" : 8,
            "componentType" : 5126,
            "count" : 26654,
            "max" : [
                0.9935951828956604,
                1.5761098861694336,
                0.9935951828956604
            ],
            "min" : [
                -0.9935952425003052,
                -0.5577777028083801,
                -0.99359530210495
            ],
            "type" : "VEC3"
        },
        {
            "bufferView" : 9,
            "componentType" : 5126,
            "count" : 26654,
            "type" : "VEC3"
        },
        {
            "bufferView" : 10,
            "componentType" : 5126,
            "count" : 26654,
            "type" : "VEC2"
        },
        {
            "bufferView" : 11,
            "componentType" : 5123,
            "count" : 150528,
            "type" : "SCALAR"
        },
        {
            "bufferView" : 12,
            "componentType" : 5126,
            "count" : 23034,
            "max" : [
                0.6760254502296448,
                2.464855909347534,
                0.6760254502296448
            ],
            "min" : [
                -0.6760255098342896,
                1.957484483718872,
                -0.6760255098342896
            ],
            "type" : "VEC3"
        },
        {
            "bufferView" : 13,
            "componentType" : 5126,
            "count" : 23034,
            "type" : "VEC3"
        },
        {
            "bufferView" : 14,
            "componentType" : 5126,
            "count" : 23034,
            "type" : "VEC2"
        },
        {
            "bufferView" : 15,
            "componentType" : 5123,
            "count" : 34560,
            "type" : "SCALAR"
        }
    ],
    "bufferViews" : [
        {
            "buffer" : 0,
            "byteLength" : 101220,
            "byteOffset" : 0
        },
        {
            "buffer" : 0,
            "byteLength" : 101220,
            "byteOffset" : 101220
        },
        {
            "buffer" : 0,
            "byteLength" : 67480,
            "byteOffset" : 202440
        },
        {
            "buffer" : 0,
            "byteLength" : 85968,
            "byteOffset" : 269920
        },
        {
            "buffer" : 0,
            "byteLength" : 4752,
            "byteOffset" : 355888
        },
        {
            "buffer" : 0,
            "byteLength" : 4752,
            "byteOffset" : 360640
        },
        {
            "buffer" : 0,
            "byteLength" : 3168,
            "byteOffset" : 365392
        },
        {
            "buffer" : 0,
            "byteLength" : 4224,
            "byteOffset" : 368560
        },
        {
            "buffer" : 0,
            "byteLength" : 319848,
            "byteOffset" : 372784
        },
        {
            "buffer" : 0,
            "byteLength" : 319848,
            "byteOffset" : 692632
        },
        {
            "buffer" : 0,
            "byteLength" : 213232,
            "byteOffset" : 1012480
        },
        {
            "buffer" : 0,
            "byteLength" : 301056,
            "byteOffset" : 1225712
        },
        {
            "buffer" : 0,
            "byteLength" : 276408,
            "byteOffset" : 1526768
        },
        {
            "buffer" : 0,
            "byteLength" : 276408,
            "byteOffset" : 1803176
        },
        {
            "buffer" : 0,
            "byteLength" : 184272,
            "byteOffset" : 2079584
        },
        {
            "buffer" : 0,
            "byteLength" : 69120,
            "byteOffset" : 2263856
        }
    ],
    "buffers" : [
        {
            "byteLength" : 2332976,
            "uri" : "data:application/octet-stream;base64,"
        }
    ]
}
