{
    "asset" : {
        "generator" : "Khronos glTF Blender I/O v1.3.48",
        "version" : "2.0"
    },
    "scene" : 0,
    "scenes" : [
        {
            "name" : "Scene",
            "nodes" : [
                0,
                1,
                2,
                3,
                4,
                5
            ]
        }
    ],
    "nodes" : [
        {
            "mesh" : 0,
            "name" : "Vert",
            "translation" : [
                0.20513248443603516,
                0.13921719789505005,
                0.7233923673629761
            ]
        },
        {
            "mesh" : 1,
            "name" : "Cube.002",
            "scale" : [
                0.13379836082458496,
                0.32144230604171753,
                0.14188319444656372
            ],
            "translation" : [
                0.13169975578784943,
                1.374096155166626,
                -0.002905912697315216
            ]
        },
        {
            "mesh" : 2,
            "name" : "Vert.007",
            "scale" : [
                1,
                1,
                0.9585974812507629
            ],
            "translation" : [
                0.2008974552154541,
                1.062079668045044,
                0.02190437912940979
            ]
        },
        {
            "mesh" : 3,
            "name" : "Vert.001",
            "scale" : [
                1,
                1,
                0.9585974812507629
            ],
            "translation" : [
                0.2008974552154541,
                1.062079668045044,
                0.02190437912940979
            ]
        },
        {
            "mesh" : 4,
            "name" : "Vert.002",
            "scale" : [
                1,
                1,
                0.9585974812507629
            ],
            "translation" : [
                0.2008974552154541,
                1.062079668045044,
                0.02190437912940979
            ]
        },
        {
            "mesh" : 5,
            "name" : "Vert.003",
            "translation" : [
                0.22396785020828247,
                0.13921719789505005,
                0.7233923673629761
            ]
        }
    ],
    "materials" : [
        {
            "doubleSided" : true,
            "emissiveFactor" : [
                0,
                0,
                0
            ],
            "name" : "Material.004",
            "pbrMetallicRoughness" : {
                "baseColorFactor" : [
                    0.5277186036109924,
                    0.5277186036109924,
                    0.5277186036109924,
                    1
                ],
                "metallicFactor" : 1,
                "roughnessFactor" : 0.2199999988079071
            }
        },
        {
            "doubleSided" : true,
            "emissiveFactor" : [
                0,
                0,
                0
            ],
            "name" : "Material.002",
            "pbrMetallicRoughness" : {
                "baseColorFactor" : [
                    0.003246819833293557,
                    0.16617617011070251,
                    1,
                    1
                ],
                "metallicFactor" : 0.11999999731779099,
                "roughnessFactor" : 0.5266666412353516
            }
        },
        {
            "doubleSided" : true,
            "emissiveFactor" : [
                0,
                0,
                0
            ],
            "name" : "Material.005",
            "pbrMetallicRoughness" : {
                "baseColorFactor" : [
                    0.800000011920929,
                    0.800000011920929,
                    0.800000011920929,
                    1
                ],
                "metallicFactor" : 0,
                "roughnessFactor" : 0.5
            }
        },
        {
            "doubleSided" : true,
            "emissiveFactor" : [
                0,
                0,
                0
            ],
            "name" : "Material.006",
            "pbrMetallicRoughness" : {
                "baseColorFactor" : [
                    0.800000011920929,
                    0.800000011920929,
                    0.800000011920929,
                    1
                ],
                "metallicFactor" : 0,
                "roughnessFactor" : 0.5
            }
        },
        {
            "doubleSided" : true,
            "emissiveFactor" : [
                0,
                0,
                0
            ],
            "name" : "Material.007",
            "pbrMetallicRoughness" : {
                "baseColorFactor" : [
                    0.800000011920929,
                    0.800000011920929,
                    0.800000011920929,
                    1
                ],
                "metallicFactor" : 0,
                "roughnessFactor" : 0.5
            }
        }
    ],
    "meshes" : [
        {
            "name" : "Vert",
            "primitives" : [
                {
                    "attributes" : {
                        "POSITION" : 0,
                        "NORMAL" : 1
                    },
                    "indices" : 2,
                    "material" : 0
                }
            ]
        },
        {
            "name" : "Cube.003",
            "primitives" : [
                {
                    "attributes" : {
                        "POSITION" : 3,
                        "NORMAL" : 4,
                        "TEXCOORD_0" : 5
                    },
                    "indices" : 6,
                    "material" : 1
                }
            ]
        },
        {
            "name" : "Vert.007",
            "primitives" : [
                {
                    "attributes" : {
                        "POSITION" : 7,
                        "NORMAL" : 8,
                        "TEXCOORD_0" : 9
                    },
                    "indices" : 10,
                    "material" : 0
                }
            ]
        },
        {
            "name" : "Vert.009",
            "primitives" : [
                {
                    "attributes" : {
                        "POSITION" : 11,
                        "NORMAL" : 12,
                        "TEXCOORD_0" : 13
                    },
                    "indices" : 14,
                    "material" : 2
                }
            ]
        },
        {
            "name" : "Vert.010",
            "primitives" : [
                {
                    "attributes" : {
                        "POSITION" : 15,
                        "NORMAL" : 16,
                        "TEXCOORD_0" : 17
                    },
                    "indices" : 18,
                    "material" : 3
                }
            ]
        },
        {
            "name" : "Vert.011",
            "primitives" : [
                {
                    "attributes" : {
                        "POSITION" : 19,
                        "NORMAL" : 20
                    },
                    "indices" : 21,
                    "material" : 4
                }
            ]
        }
    ],
    "accessors" : [
        {
            "bufferView" : 0,
            "componentType" : 5126,
            "count" : 9242,
            "max" : [
                2.0573507816987836e-16,
                1.8120776414871216,
                0.14314140379428864
            ],
            "min" : [
                -0.41047871112823486,
                0.8050392866134644,
                -1.4828760623931885
            ],
            "type" : "VEC3"
        },
        {
            "bufferView" : 1,
            "componentType" : 5126,
            "count" : 9242,
            "type" : "VEC3"
        },
        {
            "bufferView" : 2,
            "componentType" : 5123,
            "count" : 55440,
            "type" : "SCALAR"
        },
        {
            "bufferView" : 3,
            "componentType" : 5126,
            "count" : 10801,
            "max" : [
                1.0000001192092896,
                1.0000001192092896,
                2.037074089050293
            ],
            "min" : [
                -1.0000001192092896,
                -1.0000001192092896,
                -2.037074089050293
            ],
            "type" : "VEC3"
        },
        {
            "bufferView" : 4,
            "componentType" : 5126,
            "count" : 10801,
            "type" : "VEC3"
        },
        {
            "bufferView" : 5,
            "componentType" : 5126,
            "count" : 10801,
            "type" : "VEC2"
        },
        {
            "bufferView" : 6,
            "componentType" : 5123,
            "count" : 39744,
            "type" : "SCALAR"
        },
        {
            "bufferView" : 7,
            "componentType" : 5126,
            "count" : 16149,
            "max" : [
                0.041550517082214355,
                -0.3815609812736511,
                0.9652836322784424
            ],
            "min" : [
                -0.4100682735443115,
                -1.0415033102035522,
                -0.9605361819267273
            ],
            "type" : "VEC3"
        },
        {
            "bufferView" : 8,
            "componentType" : 5126,
            "count" : 16149,
            "type" : "VEC3"
        },
        {
            "bufferView" : 9,
            "componentType" : 5126,
            "count" : 16149,
            "type" : "VEC2"
        },
        {
            "bufferView" : 10,
            "componentType" : 5123,
            "count" : 33192,
            "type" : "SCALAR"
        },
        {
            "bufferView" : 11,
            "componentType" : 5126,
            "count" : 156,
            "max" : [
                -0.037917107343673706,
                -0.4821506142616272,
                0.8625054955482483
            ],
            "min" : [
                -0.04791710525751114,
                -0.8471190333366394,
                -0.857998788356781
            ],
            "type" : "VEC3"
        },
        {
            "bufferView" : 12,
            "componentType" : 5126,
            "count" : 156,
            "type" : "VEC3"
        },
        {
            "bufferView" : 13,
            "componentType" : 5126,
            "count" : 156,
            "type" : "VEC2"
        },
        {
            "bufferView" : 14,
            "componentType" : 5123,
            "count" : 300,
            "type" : "SCALAR"
        },
        {
            "bufferView" : 15,
            "componentType" : 5126,
            "count" : 384,
            "max" : [
                0.031417034566402435,
                -0.7726170420646667,
                0.756030261516571
            ],
            "min" : [
                0.021417034789919853,
                -0.9493100643157959,
                -0.7061064839363098
            ],
            "type" : "VEC3"
        },
        {
            "bufferView" : 16,
            "componentType" : 5126,
            "count" : 384,
            "type" : "VEC3"
        },
        {
            "bufferView" : 17,
            "componentType" : 5126,
            "count" : 384,
            "type" : "VEC2"
        },
        {
            "bufferView" : 18,
            "componentType" : 5123,
            "count" : 744,
            "type" : "SCALAR"
        },
        {
            "bufferView" : 19,
            "componentType" : 5126,
            "count" : 70,
            "max" : [
                -0.04034066200256348,
                1.7011505365371704,
                0.03020397014915943
            ],
            "min" : [
                -0.0803406611084938,
                0.9191316962242126,
                -1.375274658203125
            ],
            "type" : "VEC3"
        },
        {
            "bufferView" : 20,
            "componentType" : 5126,
            "count" : 70,
            "type" : "VEC3"
        },
        {
            "bufferView" : 21,
            "componentType" : 5123,
            "count" : 408,
            "type" : "SCALAR"
        }
    ],
    "bufferViews" : [
        {
            "buffer" : 0,
            "byteLength" : 110904,
            "byteOffset" : 0
        },
        {
            "buffer" : 0,
            "byteLength" : 110904,
            "byteOffset" : 110904
        },
        {
            "buffer" : 0,
            "byteLength" : 110880,
            "byteOffset" : 221808
        },
        {
            "buffer" : 0,
            "byteLength" : 129612,
            "byteOffset" : 332688
        },
        {
            "buffer" : 0,
            "byteLength" : 129612,
            "byteOffset" : 462300
        },
        {
            "buffer" : 0,
            "byteLength" : 86408,
            "byteOffset" : 591912
        },
        {
            "buffer" : 0,
            "byteLength" : 79488,
            "byteOffset" : 678320
        },
        {
            "buffer" : 0,
            "byteLength" : 193788,
            "byteOffset" : 757808
        },
        {
            "buffer" : 0,
            "byteLength" : 193788,
            "byteOffset" : 951596
        },
        {
            "buffer" : 0,
            "byteLength" : 129192,
            "byteOffset" : 1145384
        },
        {
            "buffer" : 0,
            "byteLength" : 66384,
            "byteOffset" : 1274576
        },
        {
            "buffer" : 0,
            "byteLength" : 1872,
            "byteOffset" : 1340960
        },
        {
            "buffer" : 0,
            "byteLength" : 1872,
            "byteOffset" : 1342832
        },
        {
            "buffer" : 0,
            "byteLength" : 1248,
            "byteOffset" : 1344704
        },
        {
            "buffer" : 0,
            "byteLength" : 600,
            "byteOffset" : 1345952
        },
        {
            "buffer" : 0,
            "byteLength" : 4608,
            "byteOffset" : 1346552
        },
        {
            "buffer" : 0,
            "byteLength" : 4608,
            "byteOffset" : 1351160
        },
        {
            "buffer" : 0,
            "byteLength" : 3072,
            "byteOffset" : 1355768
        },
        {
            "buffer" : 0,
            "byteLength" : 1488,
            "byteOffset" : 1358840
        },
        {
            "buffer" : 0,
            "byteLength" : 840,
            "byteOffset" : 1360328
        },
        {
            "buffer" : 0,
            "byteLength" : 840,
            "byteOffset" : 1361168
        },
        {
            "buffer" : 0,
            "byteLength" : 816,
            "byteOffset" : 1362008
        }
    ],
    "buffers" : [
        {
            "byteLength" : 1362824,
            "uri" : "data:application/octet-stream;base64,"
        }
    ]
}
