{
    "asset" : {
        "generator" : "Khronos glTF Blender I/O v1.3.48",
        "version" : "2.0"
    },
    "scene" : 0,
    "scenes" : [
        {
            "name" : "Scene",
            "nodes" : [
                0,
                1,
                2,
                3,
                4,
                5,
                6
            ]
        }
    ],
    "nodes" : [
        {
            "mesh" : 0,
            "name" : "Vert.007",
            "rotation" : [
                0,
                -0.7071223258972168,
                0,
                0.7070913314819336
            ],
            "scale" : [
                1,
                1,
                0.9585974812507629
            ],
            "translation" : [
                0.010675907135009766,
                1.062079668045044,
                0.12080872058868408
            ]
        },
        {
            "mesh" : 1,
            "name" : "Vert.001",
            "rotation" : [
                0,
                -0.6984309554100037,
                0,
                0.7156774401664734
            ],
            "scale" : [
                1,
                1,
                0.9585974812507629
            ],
            "translation" : [
                0.010675907135009766,
                1.062079668045044,
                0.12080872058868408
            ]
        },
        {
            "mesh" : 2,
            "name" : "Vert.002",
            "rotation" : [
                0,
                -0.6984309554100037,
                0,
                0.7156774401664734
            ],
            "scale" : [
                1,
                1,
                0.9585974812507629
            ],
            "translation" : [
                0.010675907135009766,
                1.062079668045044,
                0.12080872058868408
            ]
        },
        {
            "name" : "Camera",
            "rotation" : [
                0.4275888502597809,
                -0.10356571525335312,
                0.041342247277498245,
                0.897068977355957
            ],
            "translation" : [
                0.25288820266723633,
                3.794322967529297,
                4.015385627746582
            ]
        },
        {
            "mesh" : 3,
            "name" : "Vert.003",
            "scale" : [
                0.6623202562332153,
                0.6623202562332153,
                0.7068754434585571
            ],
            "translation" : [
                -0.0030525773763656616,
                1.3337103128433228,
                0.01686408370733261
            ]
        },
        {
            "mesh" : 4,
            "name" : "Vert.004",
            "scale" : [
                0.6623202562332153,
                0.6623202562332153,
                0.7068754434585571
            ],
            "translation" : [
                -0.0030525773763656616,
                1.3337103128433228,
                0.011733375489711761
            ]
        },
        {
            "mesh" : 5,
            "name" : "Text",
            "rotation" : [
                0.7071068286895752,
                0,
                0,
                0.7071068286895752
            ],
            "scale" : [
                0.9081389904022217,
                0.9081389904022217,
                0.9081389904022217
            ],
            "translation" : [
                -0.44231873750686646,
                1.0436068773269653,
                0.1315860152244568
            ]
        }
    ],
    "materials" : [
        {
            "doubleSided" : true,
            "emissiveFactor" : [
                0,
                0,
                0
            ],
            "name" : "Material.004",
            "pbrMetallicRoughness" : {
                "baseColorFactor" : [
                    1,
                    1,
                    1,
                    1
                ],
                "metallicFactor" : 1,
                "roughnessFactor" : 0.2199999988079071
            }
        },
        {
            "doubleSided" : true,
            "emissiveFactor" : [
                0,
                0,
                0
            ],
            "name" : "Material.005",
            "pbrMetallicRoughness" : {
                "baseColorFactor" : [
                    0.800000011920929,
                    0.800000011920929,
                    0.800000011920929,
                    1
                ],
                "metallicFactor" : 0,
                "roughnessFactor" : 0.2616279125213623
            }
        },
        {
            "doubleSided" : true,
            "emissiveFactor" : [
                0,
                0,
                0
            ],
            "name" : "Material.006",
            "pbrMetallicRoughness" : {
                "baseColorFactor" : [
                    0.800000011920929,
                    0.800000011920929,
                    0.800000011920929,
                    1
                ],
                "metallicFactor" : 0,
                "roughnessFactor" : 0.5
            }
        },
        {
            "doubleSided" : true,
            "emissiveFactor" : [
                0,
                0,
                0
            ],
            "name" : "Material",
            "pbrMetallicRoughness" : {
                "baseColorFactor" : [
                    0.800000011920929,
                    0.800000011920929,
                    0.800000011920929,
                    1
                ],
                "metallicFactor" : 0,
                "roughnessFactor" : 0.5
            }
        }
    ],
    "meshes" : [
        {
            "name" : "Vert.007",
            "primitives" : [
                {
                    "attributes" : {
                        "POSITION" : 0,
                        "NORMAL" : 1,
                        "TEXCOORD_0" : 2
                    },
                    "indices" : 3,
                    "material" : 0
                }
            ]
        },
        {
            "name" : "Vert.009",
            "primitives" : [
                {
                    "attributes" : {
                        "POSITION" : 4,
                        "NORMAL" : 5,
                        "TEXCOORD_0" : 6
                    },
                    "indices" : 7,
                    "material" : 1
                }
            ]
        },
        {
            "name" : "Vert.010",
            "primitives" : [
                {
                    "attributes" : {
                        "POSITION" : 8,
                        "NORMAL" : 9,
                        "TEXCOORD_0" : 10
                    },
                    "indices" : 11,
                    "material" : 2
                }
            ]
        },
        {
            "name" : "Vert.001",
            "primitives" : [
                {
                    "attributes" : {
                        "POSITION" : 12,
                        "NORMAL" : 13
                    },
                    "indices" : 14,
                    "material" : 0
                }
            ]
        },
        {
            "name" : "Vert.002",
            "primitives" : [
                {
                    "attributes" : {
                        "POSITION" : 15,
                        "NORMAL" : 16
                    },
                    "indices" : 17,
                    "material" : 3
                }
            ]
        },
        {
            "name" : "Text",
            "primitives" : [
                {
                    "attributes" : {
                        "POSITION" : 18,
                        "NORMAL" : 19,
                        "TEXCOORD_0" : 20
                    },
                    "indices" : 21,
                    "material" : 0
                }
            ]
        }
    ],
    "accessors" : [
        {
            "bufferView" : 0,
            "componentType" : 5126,
            "count" : 16149,
            "max" : [
                0.041550517082214355,
                -0.3815609812736511,
                0.9652836322784424
            ],
            "min" : [
                -0.4100682735443115,
                -1.0415033102035522,
                -0.9605361819267273
            ],
            "type" : "VEC3"
        },
        {
            "bufferView" : 1,
            "componentType" : 5126,
            "count" : 16149,
            "type" : "VEC3"
        },
        {
            "bufferView" : 2,
            "componentType" : 5126,
            "count" : 16149,
            "type" : "VEC2"
        },
        {
            "bufferView" : 3,
            "componentType" : 5123,
            "count" : 33192,
            "type" : "SCALAR"
        },
        {
            "bufferView" : 4,
            "componentType" : 5126,
            "count" : 156,
            "max" : [
                -0.00791710615158081,
                -0.4821506142616272,
                0.8625054955482483
            ],
            "min" : [
                -0.04791710525751114,
                -0.8471190333366394,
                -0.857998788356781
            ],
            "type" : "VEC3"
        },
        {
            "bufferView" : 5,
            "componentType" : 5126,
            "count" : 156,
            "type" : "VEC3"
        },
        {
            "bufferView" : 6,
            "componentType" : 5126,
            "count" : 156,
            "type" : "VEC2"
        },
        {
            "bufferView" : 7,
            "componentType" : 5123,
            "count" : 300,
            "type" : "SCALAR"
        },
        {
            "bufferView" : 8,
            "componentType" : 5126,
            "count" : 384,
            "max" : [
                0.04141703248023987,
                -0.7726170420646667,
                0.756030261516571
            ],
            "min" : [
                0.021417034789919853,
                -0.9493100643157959,
                -0.7061064839363098
            ],
            "type" : "VEC3"
        },
        {
            "bufferView" : 9,
            "componentType" : 5126,
            "count" : 384,
            "type" : "VEC3"
        },
        {
            "bufferView" : 10,
            "componentType" : 5126,
            "count" : 384,
            "type" : "VEC2"
        },
        {
            "bufferView" : 11,
            "componentType" : 5123,
            "count" : 744,
            "type" : "SCALAR"
        },
        {
            "bufferView" : 12,
            "componentType" : 5126,
            "count" : 45410,
            "max" : [
                0.5043085813522339,
                0.22559434175491333,
                0.0016301809810101986
            ],
            "min" : [
                -0.1310788244009018,
                -0.37138092517852783,
                -0.3003576397895813
            ],
            "type" : "VEC3"
        },
        {
            "bufferView" : 13,
            "componentType" : 5126,
            "count" : 45410,
            "type" : "VEC3"
        },
        {
            "bufferView" : 14,
            "componentType" : 5123,
            "count" : 272448,
            "type" : "SCALAR"
        },
        {
            "bufferView" : 15,
            "componentType" : 5126,
            "count" : 258,
            "max" : [
                0.47378838062286377,
                0.1819952130317688,
                -0.030146602541208267
            ],
            "min" : [
                -0.0987008586525917,
                -0.3398674428462982,
                -0.0501466728746891
            ],
            "type" : "VEC3"
        },
        {
            "bufferView" : 16,
            "componentType" : 5126,
            "count" : 258,
            "type" : "VEC3"
        },
        {
            "bufferView" : 17,
            "componentType" : 5123,
            "count" : 504,
            "type" : "SCALAR"
        },
        {
            "bufferView" : 18,
            "componentType" : 5126,
            "count" : 3878,
            "max" : [
                1.194000005722046,
                0,
                0.21000000834465027
            ],
            "min" : [
                0.02800000086426735,
                -0.4569770395755768,
                -0.7280000448226929
            ],
            "type" : "VEC3"
        },
        {
            "bufferView" : 19,
            "componentType" : 5126,
            "count" : 3878,
            "type" : "VEC3"
        },
        {
            "bufferView" : 20,
            "componentType" : 5126,
            "count" : 3878,
            "type" : "VEC2"
        },
        {
            "bufferView" : 21,
            "componentType" : 5123,
            "count" : 7686,
            "type" : "SCALAR"
        }
    ],
    "bufferViews" : [
        {
            "buffer" : 0,
            "byteLength" : 193788,
            "byteOffset" : 0
        },
        {
            "buffer" : 0,
            "byteLength" : 193788,
            "byteOffset" : 193788
        },
        {
            "buffer" : 0,
            "byteLength" : 129192,
            "byteOffset" : 387576
        },
        {
            "buffer" : 0,
            "byteLength" : 66384,
            "byteOffset" : 516768
        },
        {
            "buffer" : 0,
            "byteLength" : 1872,
            "byteOffset" : 583152
        },
        {
            "buffer" : 0,
            "byteLength" : 1872,
            "byteOffset" : 585024
        },
        {
            "buffer" : 0,
            "byteLength" : 1248,
            "byteOffset" : 586896
        },
        {
            "buffer" : 0,
            "byteLength" : 600,
            "byteOffset" : 588144
        },
        {
            "buffer" : 0,
            "byteLength" : 4608,
            "byteOffset" : 588744
        },
        {
            "buffer" : 0,
            "byteLength" : 4608,
            "byteOffset" : 593352
        },
        {
            "buffer" : 0,
            "byteLength" : 3072,
            "byteOffset" : 597960
        },
        {
            "buffer" : 0,
            "byteLength" : 1488,
            "byteOffset" : 601032
        },
        {
            "buffer" : 0,
            "byteLength" : 544920,
            "byteOffset" : 602520
        },
        {
            "buffer" : 0,
            "byteLength" : 544920,
            "byteOffset" : 1147440
        },
        {
            "buffer" : 0,
            "byteLength" : 544896,
            "byteOffset" : 1692360
        },
        {
            "buffer" : 0,
            "byteLength" : 3096,
            "byteOffset" : 2237256
        },
        {
            "buffer" : 0,
            "byteLength" : 3096,
            "byteOffset" : 2240352
        },
        {
            "buffer" : 0,
            "byteLength" : 1008,
            "byteOffset" : 2243448
        },
        {
            "buffer" : 0,
            "byteLength" : 46536,
            "byteOffset" : 2244456
        },
        {
            "buffer" : 0,
            "byteLength" : 46536,
            "byteOffset" : 2290992
        },
        {
            "buffer" : 0,
            "byteLength" : 31024,
            "byteOffset" : 2337528
        },
        {
            "buffer" : 0,
            "byteLength" : 15372,
            "byteOffset" : 2368552
        }
    ],
    "buffers" : [
        {
            "byteLength" : 2383924,
            "uri" : "data:application/octet-stream;base64,"
        }
    ]
}
