{
    "asset" : {
        "generator" : "Khronos glTF Blender I/O v1.3.48",
        "version" : "2.0"
    },
    "extensionsUsed" : [
        "KHR_materials_clearcoat"
    ],
    "scene" : 0,
    "scenes" : [
        {
            "name" : "Scene",
            "nodes" : [
                0,
                1,
                2,
                3,
                4,
                5,
                6,
                7,
                8,
                9,
                10
            ]
        }
    ],
    "nodes" : [
        {
            "mesh" : 0,
            "name" : "Cube",
            "scale" : [
                7.838106155395508,
                0.20570829510688782,
                5.060118675231934
            ],
            "translation" : [
                -1.7377406358718872,
                0.21379268169403076,
                -0.8018331527709961
            ]
        },
        {
            "name" : "Light",
            "rotation" : [
                0.16907575726509094,
                0.7558803558349609,
                -0.27217137813568115,
                0.570947527885437
            ],
            "translation" : [
                4.076245307922363,
                7.089858531951904,
                -1.0054539442062378
            ]
        },
        {
            "name" : "Camera",
            "rotation" : [
                0.483536034822464,
                0.33687159419059753,
                -0.20870360732078552,
                0.7804827094078064
            ],
            "translation" : [
                7.358891487121582,
                6.14430570602417,
                6.925790786743164
            ]
        },
        {
            "mesh" : 1,
            "name" : "Cube.001",
            "scale" : [
                1.8521831035614014,
                1.8521831035614014,
                1.8521831035614014
            ],
            "translation" : [
                1.4950051307678223,
                2.248415470123291,
                1.60552978515625
            ]
        },
        {
            "mesh" : 2,
            "name" : "Cube.002",
            "scale" : [
                1.8521831035614014,
                1.8521831035614014,
                1.8521831035614014
            ],
            "translation" : [
                1.4950051307678223,
                -0.12488400936126709,
                1.60552978515625
            ]
        },
        {
            "mesh" : 3,
            "name" : "Cube.003",
            "scale" : [
                1.8521831035614014,
                1.8521831035614014,
                1.8521831035614014
            ],
            "translation" : [
                1.4950051307678223,
                -0.12488400936126709,
                1.60552978515625
            ]
        },
        {
            "mesh" : 4,
            "name" : "Cube.004",
            "scale" : [
                1.8521831035614014,
                1.8521831035614014,
                1.8521831035614014
            ],
            "translation" : [
                1.4950051307678223,
                2.248415470123291,
                1.60552978515625
            ]
        },
        {
            "mesh" : 5,
            "name" : "Cube.005",
            "scale" : [
                1.8521831035614014,
                1.8521831035614014,
                1.8521831035614014
            ],
            "translation" : [
                1.4950051307678223,
                2.248415470123291,
                1.60552978515625
            ]
        },
        {
            "mesh" : 6,
            "name" : "Cube.006",
            "scale" : [
                0.2871534824371338,
                1,
                1
            ],
            "translation" : [
                3.988276958465576,
                6.8604254722595215,
                -5.350349426269531
            ]
        },
        {
            "mesh" : 7,
            "name" : "Cube.007",
            "scale" : [
                1.8521831035614014,
                1.8521831035614014,
                1.8521831035614014
            ],
            "translation" : [
                1.4950051307678223,
                2.248415470123291,
                1.60552978515625
            ]
        },
        {
            "mesh" : 8,
            "name" : "Cube.008",
            "scale" : [
                1.8521831035614014,
                1.8521831035614014,
                1.8521831035614014
            ],
            "translation" : [
                1.4950051307678223,
                2.248415470123291,
                1.60552978515625
            ]
        }
    ],
    "materials" : [
        {
            "doubleSided" : true,
            "emissiveFactor" : [
                0,
                0,
                0
            ],
            "name" : "2022 Lucid Air_Black1",
            "pbrMetallicRoughness" : {
                "baseColorFactor" : [
                    1,
                    1,
                    1,
                    1
                ],
                "metallicFactor" : 1,
                "roughnessFactor" : 1
            }
        },
        {
            "doubleSided" : true,
            "emissiveFactor" : [
                0,
                0,
                0
            ],
            "name" : "Material.009",
            "pbrMetallicRoughness" : {
                "baseColorFactor" : [
                    0.39311447739601135,
                    0.39311447739601135,
                    0.39311447739601135,
                    1
                ],
                "metallicFactor" : 0.7638888955116272,
                "roughnessFactor" : 0.4583333432674408
            }
        },
        {
            "doubleSided" : true,
            "emissiveFactor" : [
                0,
                0,
                0
            ],
            "name" : "Material.010",
            "pbrMetallicRoughness" : {
                "baseColorFactor" : [
                    0.8000000715255737,
                    0.2444087713956833,
                    0,
                    1
                ],
                "metallicFactor" : 0,
                "roughnessFactor" : 0.5
            }
        },
        {
            "doubleSided" : true,
            "emissiveFactor" : [
                0,
                0,
                0
            ],
            "extensions" : {
                "KHR_materials_clearcoat" : {
                    "clearcoatFactor" : 0.12058823555707932,
                    "clearcoatRoughnessFactor" : 0.0005882345139980316
                }
            },
            "name" : "Material.007",
            "pbrMetallicRoughness" : {
                "baseColorFactor" : [
                    0.00221141055226326,
                    0.0026591443456709385,
                    0.0036421006079763174,
                    0.1527777761220932
                ],
                "metallicFactor" : 0,
                "roughnessFactor" : 0
            }
        },
        {
            "doubleSided" : true,
            "emissiveFactor" : [
                0,
                0,
                0
            ],
            "name" : "Material.014",
            "pbrMetallicRoughness" : {
                "baseColorFactor" : [
                    0.8000000715255737,
                    0.20007950067520142,
                    0,
                    1
                ],
                "metallicFactor" : 0,
                "roughnessFactor" : 0.5
            }
        }
    ],
    "meshes" : [
        {
            "name" : "Cube",
            "primitives" : [
                {
                    "attributes" : {
                        "POSITION" : 0,
                        "NORMAL" : 1,
                        "TEXCOORD_0" : 2
                    },
                    "indices" : 3,
                    "material" : 0
                }
            ]
        },
        {
            "name" : "Cube.001",
            "primitives" : [
                {
                    "attributes" : {
                        "POSITION" : 4,
                        "NORMAL" : 5,
                        "TEXCOORD_0" : 6
                    },
                    "indices" : 7,
                    "material" : 1
                }
            ]
        },
        {
            "name" : "Cube.002",
            "primitives" : [
                {
                    "attributes" : {
                        "POSITION" : 8,
                        "NORMAL" : 9,
                        "TEXCOORD_0" : 10
                    },
                    "indices" : 11
                }
            ]
        },
        {
            "name" : "Cube.003",
            "primitives" : [
                {
                    "attributes" : {
                        "POSITION" : 12,
                        "NORMAL" : 13,
                        "TEXCOORD_0" : 14
                    },
                    "indices" : 15,
                    "material" : 2
                }
            ]
        },
        {
            "name" : "Cube.004",
            "primitives" : [
                {
                    "attributes" : {
                        "POSITION" : 16,
                        "NORMAL" : 17,
                        "TEXCOORD_0" : 18
                    },
                    "indices" : 19
                }
            ]
        },
        {
            "name" : "Cube.005",
            "primitives" : [
                {
                    "attributes" : {
                        "POSITION" : 20,
                        "NORMAL" : 21,
                        "TEXCOORD_0" : 22
                    },
                    "indices" : 23,
                    "material" : 3
                }
            ]
        },
        {
            "name" : "Cube.006",
            "primitives" : [
                {
                    "attributes" : {
                        "POSITION" : 24,
                        "NORMAL" : 25,
                        "TEXCOORD_0" : 26
                    },
                    "indices" : 27
                }
            ]
        },
        {
            "name" : "Cube.007",
            "primitives" : [
                {
                    "attributes" : {
                        "POSITION" : 28,
                        "NORMAL" : 29,
                        "TEXCOORD_0" : 30
                    },
                    "indices" : 31,
                    "material" : 4
                }
            ]
        },
        {
            "name" : "Cube.008",
            "primitives" : [
                {
                    "attributes" : {
                        "POSITION" : 32,
                        "NORMAL" : 33,
                        "TEXCOORD_0" : 34
                    },
                    "indices" : 35,
                    "material" : 3
                }
            ]
        }
    ],
    "accessors" : [
        {
            "bufferView" : 0,
            "componentType" : 5126,
            "count" : 120,
            "max" : [
                1,
                1,
                1
            ],
            "min" : [
                -1,
                -1,
                -1
            ],
            "type" : "VEC3"
        },
        {
            "bufferView" : 1,
            "componentType" : 5126,
            "count" : 120,
            "type" : "VEC3"
        },
        {
            "bufferView" : 2,
            "componentType" : 5126,
            "count" : 120,
            "type" : "VEC2"
        },
        {
            "bufferView" : 3,
            "componentType" : 5123,
            "count" : 228,
            "type" : "SCALAR"
        },
        {
            "bufferView" : 4,
            "componentType" : 5126,
            "count" : 3148,
            "max" : [
                1.4874951839447021,
                3.2728757858276367,
                1
            ],
            "min" : [
                -1.9887722730636597,
                -1.1046292781829834,
                -3.867673635482788
            ],
            "type" : "VEC3"
        },
        {
            "bufferView" : 5,
            "componentType" : 5126,
            "count" : 3148,
            "type" : "VEC3"
        },
        {
            "bufferView" : 6,
            "componentType" : 5126,
            "count" : 3148,
            "type" : "VEC2"
        },
        {
            "bufferView" : 7,
            "componentType" : 5123,
            "count" : 9702,
            "type" : "SCALAR"
        },
        {
            "bufferView" : 8,
            "componentType" : 5126,
            "count" : 108,
            "max" : [
                1,
                2.6228551864624023,
                1
            ],
            "min" : [
                -2.7937068939208984,
                2.481579303741455,
                -2.8730523586273193
            ],
            "type" : "VEC3"
        },
        {
            "bufferView" : 9,
            "componentType" : 5126,
            "count" : 108,
            "type" : "VEC3"
        },
        {
            "bufferView" : 10,
            "componentType" : 5126,
            "count" : 108,
            "type" : "VEC2"
        },
        {
            "bufferView" : 11,
            "componentType" : 5123,
            "count" : 180,
            "type" : "SCALAR"
        },
        {
            "bufferView" : 12,
            "componentType" : 5126,
            "count" : 124,
            "max" : [
                1,
                3.149657726287842,
                1
            ],
            "min" : [
                -2.7937068939208984,
                2.6228551864624023,
                -2.8730523586273193
            ],
            "type" : "VEC3"
        },
        {
            "bufferView" : 13,
            "componentType" : 5126,
            "count" : 124,
            "type" : "VEC3"
        },
        {
            "bufferView" : 14,
            "componentType" : 5126,
            "count" : 124,
            "type" : "VEC2"
        },
        {
            "bufferView" : 15,
            "componentType" : 5123,
            "count" : 228,
            "type" : "SCALAR"
        },
        {
            "bufferView" : 16,
            "componentType" : 5126,
            "count" : 228,
            "max" : [
                -1.858625888824463,
                0.6249737739562988,
                0.8055455088615417
            ],
            "min" : [
                -1.9586821794509888,
                -0.5473102927207947,
                -1.0149976015090942
            ],
            "type" : "VEC3"
        },
        {
            "bufferView" : 17,
            "componentType" : 5126,
            "count" : 228,
            "type" : "VEC3"
        },
        {
            "bufferView" : 18,
            "componentType" : 5126,
            "count" : 228,
            "type" : "VEC2"
        },
        {
            "bufferView" : 19,
            "componentType" : 5123,
            "count" : 504,
            "type" : "SCALAR"
        },
        {
            "bufferView" : 20,
            "componentType" : 5126,
            "count" : 16,
            "max" : [
                0.773694634437561,
                2.9684934616088867,
                -1.479596734046936
            ],
            "min" : [
                -0.9192537069320679,
                1.6677621603012085,
                -1.8274909257888794
            ],
            "type" : "VEC3"
        },
        {
            "bufferView" : 21,
            "componentType" : 5126,
            "count" : 16,
            "type" : "VEC3"
        },
        {
            "bufferView" : 22,
            "componentType" : 5126,
            "count" : 16,
            "type" : "VEC2"
        },
        {
            "bufferView" : 23,
            "componentType" : 5123,
            "count" : 24,
            "type" : "SCALAR"
        },
        {
            "bufferView" : 24,
            "componentType" : 5126,
            "count" : 190,
            "max" : [
                1,
                1,
                1
            ],
            "min" : [
                -1,
                -1,
                -1
            ],
            "type" : "VEC3"
        },
        {
            "bufferView" : 25,
            "componentType" : 5126,
            "count" : 190,
            "type" : "VEC3"
        },
        {
            "bufferView" : 26,
            "componentType" : 5126,
            "count" : 190,
            "type" : "VEC2"
        },
        {
            "bufferView" : 27,
            "componentType" : 5123,
            "count" : 372,
            "type" : "SCALAR"
        },
        {
            "bufferView" : 28,
            "componentType" : 5126,
            "count" : 154,
            "max" : [
                1.237842321395874,
                3.5571272373199463,
                0.6099290251731873
            ],
            "min" : [
                -1.8003816604614258,
                2.318551778793335,
                -1.2050509452819824
            ],
            "type" : "VEC3"
        },
        {
            "bufferView" : 29,
            "componentType" : 5126,
            "count" : 154,
            "type" : "VEC3"
        },
        {
            "bufferView" : 30,
            "componentType" : 5126,
            "count" : 154,
            "type" : "VEC2"
        },
        {
            "bufferView" : 31,
            "componentType" : 5123,
            "count" : 240,
            "type" : "SCALAR"
        },
        {
            "bufferView" : 32,
            "componentType" : 5126,
            "count" : 4,
            "max" : [
                -1.844106912612915,
                2.415665864944458,
                0.7381535768508911
            ],
            "min" : [
                -1.844106912612915,
                1.576913833618164,
                -0.9476057887077332
            ],
            "type" : "VEC3"
        },
        {
            "bufferView" : 33,
            "componentType" : 5126,
            "count" : 4,
            "type" : "VEC3"
        },
        {
            "bufferView" : 34,
            "componentType" : 5126,
            "count" : 4,
            "type" : "VEC2"
        },
        {
            "bufferView" : 35,
            "componentType" : 5123,
            "count" : 6,
            "type" : "SCALAR"
        }
    ],
    "bufferViews" : [
        {
            "buffer" : 0,
            "byteLength" : 1440,
            "byteOffset" : 0
        },
        {
            "buffer" : 0,
            "byteLength" : 1440,
            "byteOffset" : 1440
        },
        {
            "buffer" : 0,
            "byteLength" : 960,
            "byteOffset" : 2880
        },
        {
            "buffer" : 0,
            "byteLength" : 456,
            "byteOffset" : 3840
        },
        {
            "buffer" : 0,
            "byteLength" : 37776,
            "byteOffset" : 4296
        },
        {
            "buffer" : 0,
            "byteLength" : 37776,
            "byteOffset" : 42072
        },
        {
            "buffer" : 0,
            "byteLength" : 25184,
            "byteOffset" : 79848
        },
        {
            "buffer" : 0,
            "byteLength" : 19404,
            "byteOffset" : 105032
        },
        {
            "buffer" : 0,
            "byteLength" : 1296,
            "byteOffset" : 124436
        },
        {
            "buffer" : 0,
            "byteLength" : 1296,
            "byteOffset" : 125732
        },
        {
            "buffer" : 0,
            "byteLength" : 864,
            "byteOffset" : 127028
        },
        {
            "buffer" : 0,
            "byteLength" : 360,
            "byteOffset" : 127892
        },
        {
            "buffer" : 0,
            "byteLength" : 1488,
            "byteOffset" : 128252
        },
        {
            "buffer" : 0,
            "byteLength" : 1488,
            "byteOffset" : 129740
        },
        {
            "buffer" : 0,
            "byteLength" : 992,
            "byteOffset" : 131228
        },
        {
            "buffer" : 0,
            "byteLength" : 456,
            "byteOffset" : 132220
        },
        {
            "buffer" : 0,
            "byteLength" : 2736,
            "byteOffset" : 132676
        },
        {
            "buffer" : 0,
            "byteLength" : 2736,
            "byteOffset" : 135412
        },
        {
            "buffer" : 0,
            "byteLength" : 1824,
            "byteOffset" : 138148
        },
        {
            "buffer" : 0,
            "byteLength" : 1008,
            "byteOffset" : 139972
        },
        {
            "buffer" : 0,
            "byteLength" : 192,
            "byteOffset" : 140980
        },
        {
            "buffer" : 0,
            "byteLength" : 192,
            "byteOffset" : 141172
        },
        {
            "buffer" : 0,
            "byteLength" : 128,
            "byteOffset" : 141364
        },
        {
            "buffer" : 0,
            "byteLength" : 48,
            "byteOffset" : 141492
        },
        {
            "buffer" : 0,
            "byteLength" : 2280,
            "byteOffset" : 141540
        },
        {
            "buffer" : 0,
            "byteLength" : 2280,
            "byteOffset" : 143820
        },
        {
            "buffer" : 0,
            "byteLength" : 1520,
            "byteOffset" : 146100
        },
        {
            "buffer" : 0,
            "byteLength" : 744,
            "byteOffset" : 147620
        },
        {
            "buffer" : 0,
            "byteLength" : 1848,
            "byteOffset" : 148364
        },
        {
            "buffer" : 0,
            "byteLength" : 1848,
            "byteOffset" : 150212
        },
        {
            "buffer" : 0,
            "byteLength" : 1232,
            "byteOffset" : 152060
        },
        {
            "buffer" : 0,
            "byteLength" : 480,
            "byteOffset" : 153292
        },
        {
            "buffer" : 0,
            "byteLength" : 48,
            "byteOffset" : 153772
        },
        {
            "buffer" : 0,
            "byteLength" : 48,
            "byteOffset" : 153820
        },
        {
            "buffer" : 0,
            "byteLength" : 32,
            "byteOffset" : 153868
        },
        {
            "buffer" : 0,
            "byteLength" : 12,
            "byteOffset" : 153900
        }
    ],
    "buffers" : [
        {
            "byteLength" : 153912,
            "uri" : "data:application/octet-stream;base64,"
        }
    ]
}
